<?xml version="1.0" encoding="iso-8859-1"?>
<!-- Generator: Adobe Illustrator 16.0.0, SVG Export Plug-In . SVG Version: 6.00 Build 0)  -->
<!DOCTYPE svg PUBLIC "-//W3C//DTD SVG 1.1//EN" "http://www.w3.org/Graphics/SVG/1.1/DTD/svg11.dtd">
<svg xmlns="http://www.w3.org/2000/svg" xmlns:xlink="http://www.w3.org/1999/xlink" version="1.1" id="Capa_1" x="0px" y="0px" width="512px" height="512px" viewBox="0 0 611.995 611.996" style="enable-background:new 0 0 611.995 611.996;" xml:space="preserve">
<g>
	<g id="Shape_7">
		<g>
			<path d="M306.09,217.767c-58.389,0-113.597,19.032-159.65,55.036c-4.68,3.666-5.542,10.459-1.919,15.182     c2.113,2.76,5.284,4.206,8.475,4.206c2.286,0,4.604-0.744,6.545-2.265c42.269-33.049,92.948-50.518,146.539-50.518     c53.515,0,104.118,17.415,146.344,50.367c4.69,3.655,11.408,2.782,15.031-1.952c3.612-4.734,2.75-11.527-1.93-15.182     C419.525,236.745,364.382,217.767,306.09,217.767z M607.825,188.815C520.765,120.895,416.452,84.988,306.176,84.988     c-110.448,0-214.88,36.003-302.016,104.129c-4.68,3.666-5.542,10.459-1.919,15.182c2.114,2.761,5.284,4.206,8.476,4.206     c2.286,0,4.593-0.744,6.545-2.265c83.351-65.16,183.254-99.601,288.915-99.601c105.499,0,205.272,34.343,288.548,99.32     c4.68,3.655,11.408,2.782,15.031-1.952C613.378,199.275,612.516,192.471,607.825,188.815z M306.036,350.806     c-28.715,0-55.866,9.369-78.532,27.074c-4.68,3.666-5.542,10.461-1.919,15.184c2.113,2.76,5.283,4.205,8.475,4.205     c2.286,0,4.604-0.744,6.545-2.266c18.87-14.762,41.493-22.547,65.42-22.547c23.884,0,46.484,7.775,65.344,22.494     c4.69,3.654,11.43,2.793,15.031-1.951c3.612-4.734,2.749-11.527-1.931-15.184C361.826,360.144,334.707,350.806,306.036,350.806z      M305.993,470.226c-15.517,0-28.1,12.713-28.1,28.391s12.583,28.391,28.1,28.391c15.516,0,28.1-12.713,28.1-28.391     S321.509,470.226,305.993,470.226z" fill="#69f0ae"/>
		</g>
	</g>
</g>
<g>
</g>
<g>
</g>
<g>
</g>
<g>
</g>
<g>
</g>
<g>
</g>
<g>
</g>
<g>
</g>
<g>
</g>
<g>
</g>
<g>
</g>
<g>
</g>
<g>
</g>
<g>
</g>
<g>
</g>
</svg>
